<svg width="48" height="48" viewBox="0 0 48 48" fill="none" xmlns="http://www.w3.org/2000/svg">
<path d="M0 0H46C47.1046 0 48 0.895431 48 2V46C48 47.1046 47.1046 48 46 48H0V0Z" fill="#3A6150"/>
<path d="M33.5 33.5L29.014 29.006L33.5 33.5ZM31.5 23C31.5 25.2543 30.6045 27.4163 29.0104 29.0104C27.4163 30.6045 25.2543 31.5 23 31.5C20.7457 31.5 18.5837 30.6045 16.9896 29.0104C15.3955 27.4163 14.5 25.2543 14.5 23C14.5 20.7457 15.3955 18.5837 16.9896 16.9896C18.5837 15.3955 20.7457 14.5 23 14.5C25.2543 14.5 27.4163 15.3955 29.0104 16.9896C30.6045 18.5837 31.5 20.7457 31.5 23V23Z" stroke="white" stroke-width="2" stroke-linecap="round" stroke-linejoin="round"/>
</svg>
